{"glyphs":{"0":{"ha":681,"x_min":52,"x_max":633,"o":"m 416 780 q 311 682 361 780 q 228 423 260 585 q 214 165 198 263 q 278 66 229 66 q 458 430 387 66 q 479 685 490 590 q 416 780 468 780 m 199 722 q 256 785 199 722 q 429 848 313 848 q 606 722 544 848 q 633 422 667 597 q 488 121 600 247 q 262 -4 377 -4 q 82 121 146 -4 q 52 422 18 247 q 199 722 85 597 z "},"1":{"ha":419,"x_min":-11,"x_max":416,"o":"m 404 872 q 416 846 416 872 q 380 719 397 807 l 274 171 q 264 90 264 118 q 280 60 264 72 q 309 44 296 47 q 331 41 323 41 q 332 37 332 41 q 323 -5 332 14 q 249 1 309 -4 q 160 5 189 5 q 67 1 130 5 q -9 -5 4 -4 q -11 4 -11 -4 q 0 41 -11 41 q 47 52 15 41 q 84 76 79 64 q 106 153 95 99 l 195 613 q 201 652 201 635 q 183 681 201 681 q 87 636 165 681 q 75 669 71 646 q 80 685 75 680 q 404 872 384 872 z "},"2":{"ha":613,"x_min":-11,"x_max":593,"o":"m 332 758 q 252 729 292 758 q 186 671 212 700 q 160 643 161 643 q 146 654 152 643 q 141 677 141 665 l 146 700 q 267 810 184 750 q 414 871 349 871 q 543 823 494 871 q 593 693 593 776 q 585 629 593 662 q 567 568 576 595 q 534 507 557 541 q 496 451 511 473 q 448 394 481 429 q 399 342 415 359 q 342 290 382 326 q 288 243 301 255 q 231 196 274 232 q 179 153 187 160 q 176 144 176 151 q 180 138 176 138 l 396 138 q 435 144 418 138 q 466 164 453 151 q 486 187 479 178 q 501 215 492 197 q 511 236 510 233 q 551 247 518 247 q 570 236 563 247 q 522 125 560 212 q 469 0 484 38 l 275 1 q -4 0 5 0 q -11 26 -11 11 q -9 45 -11 37 q 263 351 140 189 q 406 612 387 513 q 410 655 410 635 q 391 730 410 701 q 332 758 372 758 z "},"3":{"ha":583,"x_min":-8,"x_max":536,"o":"m 420 871 q 511 831 472 871 q 536 715 551 791 q 503 631 526 669 q 458 572 480 593 q 389 513 437 552 q 492 449 438 513 q 529 290 547 385 q 446 130 511 199 q 299 28 381 61 q 133 -5 217 -5 q -4 38 39 -5 q -8 76 -8 49 q 12 123 -8 106 q 57 141 33 141 q 121 103 83 141 q 193 65 160 65 q 294 114 252 65 q 353 255 335 163 q 342 383 369 334 q 254 433 316 433 q 163 426 205 433 q 161 461 156 438 q 170 487 167 481 q 381 680 346 517 q 370 749 391 722 q 323 776 350 776 q 243 760 282 776 q 179 727 203 743 q 152 711 155 711 q 141 738 141 711 q 145 760 141 755 q 257 843 194 815 q 420 871 320 871 z "},"4":{"ha":629,"x_min":12,"x_max":614,"o":"m 595 876 q 609 871 602 876 q 614 860 616 867 l 513 342 q 522 331 510 331 l 563 331 q 574 311 574 331 q 568 281 574 300 q 557 250 563 262 l 552 236 l 500 236 q 491 225 494 236 l 448 5 q 362 -7 415 -7 q 293 11 289 -7 l 335 228 q 324 235 335 235 l 22 236 q 12 269 12 248 q 16 301 12 281 l 556 854 q 595 876 578 876 m 407 604 q 404 613 410 613 q 399 610 401 613 l 144 347 q 141 340 141 345 q 148 331 141 331 l 343 331 q 358 343 355 335 l 407 604 z "},"5":{"ha":604,"x_min":-7,"x_max":579,"o":"m 545 726 q 430 726 499 726 q 299 724 326 727 q 269 709 273 722 l 216 559 q 320 572 270 572 q 488 497 418 572 q 540 319 559 422 q 396 87 513 179 q 134 -5 279 -5 q -3 38 41 -5 q -7 76 -7 49 q 14 123 -7 106 q 58 141 34 141 q 123 103 84 141 q 194 65 161 65 q 300 122 259 65 q 355 248 342 179 q 341 391 373 336 q 252 445 309 445 q 187 440 217 445 q 141 431 157 435 q 122 426 125 426 q 103 445 111 426 l 138 551 q 212 762 175 658 q 256 865 250 865 q 578 872 548 865 q 579 826 585 859 q 545 726 567 757 z "},"6":{"ha":633,"x_min":24,"x_max":631,"o":"m 313 467 q 337 488 313 477 q 389 498 361 498 q 506 438 457 498 q 555 296 555 378 q 456 85 555 179 q 245 -8 358 -8 q 86 52 148 -8 q 24 218 24 113 q 45 342 24 277 q 111 481 65 407 q 224 623 157 555 q 393 759 292 692 q 617 875 495 826 q 628 857 624 872 q 631 829 632 841 q 252 453 363 715 q 195 163 195 319 q 262 62 195 62 q 349 139 313 62 q 384 304 384 216 q 359 407 384 382 q 315 431 343 423 q 313 467 313 438 z "},"7":{"ha":639,"x_min":14,"x_max":650,"o":"m 50 -15 q 24 -4 35 -15 q 14 19 14 7 q 19 38 14 33 l 490 696 l 191 696 q 73 589 127 696 q 66 588 72 589 q 58 587 61 587 q 27 597 35 587 q 56 669 37 624 q 96 759 75 713 q 122 818 117 804 q 149 834 127 834 l 557 834 q 609 836 576 834 q 643 838 642 838 q 650 831 650 838 q 597 735 650 814 l 60 -14 q 50 -15 56 -15 z "},"8":{"ha":621,"x_min":11,"x_max":610,"o":"m 251 62 q 321 93 293 62 q 359 154 350 123 q 368 209 368 184 q 365 235 368 222 q 359 258 362 248 q 347 281 355 269 q 335 300 339 293 q 319 320 331 308 q 304 336 308 332 q 288 353 301 340 q 274 366 275 365 q 259 377 263 377 q 248 372 256 377 q 204 290 228 357 q 180 165 180 222 q 251 62 180 62 m 388 787 q 326 753 350 787 q 296 690 302 720 q 290 637 290 659 q 292 616 290 625 q 298 596 293 606 q 304 581 302 586 q 316 565 307 575 q 327 552 326 555 q 340 538 328 549 q 353 526 351 528 q 366 519 359 519 q 376 524 372 519 q 448 711 448 618 q 388 787 448 787 m 399 859 q 548 816 486 859 q 610 697 610 773 q 430 463 610 567 q 427 458 427 461 q 429 453 427 454 l 442 441 q 463 421 456 429 q 485 398 471 414 q 508 368 499 382 q 527 336 517 354 q 542 299 537 319 q 547 259 547 279 q 451 77 547 161 q 228 -8 355 -8 q 73 34 134 -8 q 11 164 11 76 q 205 427 11 328 q 206 438 213 431 q 186 460 206 439 q 161 488 167 480 q 143 517 156 496 q 125 560 130 538 q 121 608 121 582 q 210 791 121 724 q 399 859 300 859 z "},"9":{"ha":612,"x_min":-1,"x_max":605,"o":"m 316 399 q 293 378 316 388 q 240 369 270 369 q 123 429 172 369 q 75 571 75 488 q 173 781 75 688 q 384 875 271 875 q 543 814 481 875 q 605 648 605 754 q 585 525 605 590 q 518 386 564 460 q 405 243 472 312 q 236 108 338 175 q 12 -8 134 41 q 1 10 5 -5 q -1 38 -3 26 q 377 414 266 152 q 434 704 434 548 q 368 804 434 804 q 281 728 316 804 q 245 563 245 651 q 270 460 245 484 q 315 435 286 444 q 316 399 316 429 z "}," ":{"ha":258,"x_min":0,"x_max":0,"o":""},"!":{"ha":312,"x_min":3,"x_max":312,"o":"m 3 90 q 43 160 11 132 q 113 189 76 189 q 174 160 152 189 q 187 90 195 132 q 146 16 179 47 q 77 -15 114 -15 q 18 16 41 -15 q 3 90 -5 46 m 251 871 q 301 846 282 871 q 312 779 320 821 q 165 300 298 704 q 115 258 151 258 q 107 288 107 258 q 126 551 111 369 q 151 780 141 732 q 187 846 159 821 q 251 871 216 871 z "},"\"":{"ha":461,"x_min":84,"x_max":431,"o":"m 392 947 q 431 932 423 947 q 430 859 438 918 q 388 734 422 818 q 342 609 354 650 q 313 589 336 589 q 298 593 305 589 q 293 606 292 598 q 298 709 298 661 q 296 801 298 757 q 293 863 293 845 q 328 916 297 886 q 392 947 358 947 m 183 947 q 222 932 214 947 q 221 859 229 918 q 179 734 213 818 q 133 609 145 650 q 104 589 127 589 q 90 593 96 589 q 84 606 83 598 q 90 709 90 661 q 87 801 90 757 q 84 863 84 845 q 119 916 88 886 q 183 947 149 947 z "},"#":{"ha":600,"x_min":11,"x_max":589,"o":"m 483 513 q 579 513 483 513 q 589 506 589 513 q 577 454 589 487 q 555 422 566 422 l 457 422 l 418 321 l 514 321 q 524 313 524 321 q 512 262 524 294 q 490 231 500 231 l 392 231 l 323 33 q 271 22 319 22 q 235 28 235 22 q 236 33 236 31 l 307 231 l 202 231 l 133 33 q 81 22 129 22 q 45 28 45 22 q 46 33 46 31 l 117 231 l 20 231 q 11 239 11 231 q 22 290 11 258 q 45 321 34 321 l 142 321 l 182 422 l 85 422 q 76 430 76 422 q 87 481 76 449 q 110 513 99 513 l 208 513 l 277 711 q 335 722 281 722 q 365 713 365 722 q 363 711 363 712 l 293 513 l 397 513 l 467 711 q 525 722 471 722 q 555 713 555 722 q 553 711 553 712 l 483 513 m 372 422 l 267 422 l 228 321 l 332 321 l 372 422 z "},"$":{"ha":613,"x_min":8,"x_max":593,"o":"m 316 313 l 225 62 l 231 62 q 328 115 289 62 q 366 218 366 167 q 330 298 366 256 q 316 313 326 304 m 198 -12 l 168 -94 q 149 -100 165 -100 q 100 -79 126 -100 l 127 -4 q 8 22 79 4 l 8 57 q 19 237 8 140 q 52 251 20 251 q 80 245 73 251 q 100 151 80 199 q 159 80 121 103 l 259 361 q 226 389 248 372 q 194 415 203 407 q 123 492 148 453 q 98 586 98 530 q 199 789 98 707 q 407 872 300 872 q 445 869 420 872 l 471 941 q 488 949 473 949 q 543 925 521 949 l 515 856 q 593 838 547 846 q 567 605 578 605 q 528 610 538 605 q 518 627 518 613 q 480 755 518 703 l 389 507 q 431 475 404 495 q 469 448 458 456 q 526 383 507 416 q 545 297 545 350 q 465 92 545 179 q 355 15 419 42 q 228 -12 290 -12 l 198 -12 m 332 557 l 419 796 q 393 799 403 799 q 301 753 330 799 q 273 667 273 707 q 294 600 273 631 q 332 557 301 589 z "},"%":{"ha":850,"x_min":-8,"x_max":853,"o":"m 298 821 q 208 692 232 821 q 259 509 174 509 q 318 546 294 509 q 351 632 342 583 q 298 821 388 821 m 168 810 q 202 840 168 810 q 320 871 237 871 q 449 810 403 871 q 479 663 495 749 q 393 517 463 578 q 240 457 323 457 q 111 517 157 457 q 81 663 65 578 q 168 810 98 749 m 585 363 q 494 236 518 363 q 545 52 460 52 q 604 89 581 52 q 637 176 628 126 q 585 363 674 363 m 454 354 q 489 385 454 354 q 606 415 524 415 q 735 354 689 415 q 765 208 781 293 q 679 62 749 122 q 526 1 609 1 q 397 62 444 1 q 368 208 351 122 q 454 354 384 293 m 853 853 l 83 9 q 38 -5 68 -5 q 12 -2 23 -5 q -3 5 1 1 q -8 14 -8 9 l 764 857 q 791 876 783 876 q 853 853 830 876 z "},"&":{"ha":880,"x_min":23,"x_max":876,"o":"m 399 861 q 508 827 461 861 q 555 736 555 793 q 526 661 555 697 q 473 624 496 624 q 454 636 454 624 q 460 656 454 637 q 465 697 465 674 q 437 766 465 739 q 369 792 410 792 q 270 744 309 792 q 231 632 231 696 q 270 543 231 576 q 324 552 304 552 q 390 534 361 552 q 419 488 419 517 q 392 448 419 463 q 331 434 365 434 q 247 463 279 434 q 186 277 186 411 q 237 119 186 183 q 385 54 289 54 q 564 134 492 54 q 635 321 635 213 q 616 409 635 372 q 557 446 597 446 q 498 428 524 446 q 473 380 473 410 q 511 349 473 358 q 551 328 532 343 q 571 294 571 313 q 513 213 571 228 q 444 254 481 213 q 406 347 406 296 q 465 473 406 422 q 604 524 525 524 q 655 522 624 524 q 707 521 686 521 q 785 543 751 521 q 818 602 818 564 q 805 631 818 620 q 773 643 792 643 q 741 628 760 643 q 707 613 722 613 q 666 632 682 613 q 650 677 650 651 q 680 741 650 719 q 876 602 876 741 q 838 503 876 541 q 731 464 799 464 q 696 467 723 464 q 773 304 773 397 q 649 75 773 170 q 369 -19 525 -19 q 127 60 231 -19 q 23 266 23 140 q 80 420 23 350 q 203 517 137 491 q 189 532 201 519 q 170 553 176 545 q 153 577 163 562 q 140 610 144 593 q 136 650 136 628 q 219 806 136 750 q 399 861 302 861 z "},"'":{"ha":252,"x_min":84,"x_max":222,"o":"m 183 947 q 222 932 214 947 q 221 859 229 918 q 179 734 213 818 q 133 609 145 650 q 104 589 127 589 q 90 593 96 589 q 84 606 83 598 q 90 709 90 661 q 87 801 90 757 q 84 863 84 845 q 119 916 88 886 q 183 947 149 947 z "},"(":{"ha":479,"x_min":39,"x_max":492,"o":"m 39 271 q 79 512 39 392 q 178 720 119 632 q 299 876 236 807 q 412 979 362 944 q 483 1015 463 1015 q 492 989 492 1015 q 492 983 492 986 q 491 978 491 979 q 488 974 491 977 q 292 680 396 914 q 189 191 189 446 q 216 -33 189 61 q 270 -144 243 -126 q 271 -151 271 -144 q 263 -173 270 -160 q 250 -186 256 -186 q 212 -166 236 -186 q 157 -106 187 -146 q 101 -12 127 -65 q 57 116 75 41 q 39 271 39 191 z "},")":{"ha":467,"x_min":-19,"x_max":433,"o":"m 433 553 q 394 319 433 437 q 298 113 355 201 q 177 -44 240 26 q 64 -150 114 -114 q -9 -186 14 -186 q -19 -160 -19 -186 l -19 -152 q -15 -144 -19 -146 q 60 -64 12 -130 q 158 101 107 1 q 246 347 209 201 q 283 639 283 494 q 260 853 283 761 q 202 974 236 945 q 201 978 201 975 q 210 1001 202 987 q 224 1015 217 1015 q 279 980 245 1015 q 348 888 313 945 q 408 740 382 830 q 433 553 433 650 z "},"*":{"ha":510,"x_min":33,"x_max":499,"o":"m 300 700 q 338 741 313 700 q 395 821 362 781 q 463 861 429 861 q 499 817 499 861 q 454 752 499 780 q 366 704 410 724 q 321 667 321 684 q 347 649 321 655 q 404 639 373 643 q 460 619 434 635 q 486 575 486 604 q 466 532 486 552 q 425 513 446 513 q 375 541 400 513 q 330 598 350 570 q 296 627 309 627 q 279 603 282 627 q 273 535 275 579 q 260 460 270 491 q 201 408 245 408 q 171 422 184 408 q 157 453 157 435 q 203 549 157 483 q 250 629 250 614 q 239 640 250 640 q 166 610 228 640 q 76 581 104 581 q 45 593 58 581 q 33 621 33 605 q 37 647 33 633 q 62 675 42 661 q 117 689 83 689 q 176 684 138 689 q 225 678 213 678 q 246 680 240 678 q 254 684 252 681 q 255 692 255 686 q 219 754 255 705 q 183 836 183 803 q 201 882 183 861 q 243 902 218 902 q 269 895 259 902 q 283 865 279 887 q 287 833 286 844 q 288 792 288 823 l 288 780 q 286 756 286 768 q 287 730 286 745 q 291 708 288 716 q 300 700 294 700 z "},"+":{"ha":658,"x_min":11,"x_max":628,"o":"m 320 637 q 361 656 323 650 q 418 662 400 662 q 429 659 426 662 q 431 650 433 655 l 384 395 q 388 388 381 388 l 623 388 q 628 363 628 388 q 593 290 628 326 q 368 290 593 290 q 362 285 362 290 q 315 41 362 285 q 281 24 313 31 q 225 16 248 16 q 209 20 214 16 q 205 28 203 24 l 254 283 q 248 290 254 290 l 16 290 q 11 315 11 290 q 46 388 11 353 q 270 388 46 388 q 275 393 275 388 q 297 511 283 433 q 320 637 311 589 z "},",":{"ha":330,"x_min":3,"x_max":264,"o":"m 3 -182 q 14 -172 3 -179 q 42 -151 26 -164 q 75 -119 58 -137 q 102 -72 91 -100 q 114 -12 114 -43 q 103 33 114 1 q 92 83 92 64 q 128 154 92 126 q 216 182 164 182 q 263 171 251 182 q 264 129 264 161 q 225 -27 264 41 q 144 -138 184 -98 q 24 -228 103 -178 q 3 -182 3 -212 z "},"-":{"ha":448,"x_min":39,"x_max":388,"o":"m 72 362 l 380 378 q 388 362 388 378 q 375 313 388 347 q 353 277 362 278 l 46 262 q 39 282 39 262 q 51 329 39 297 q 72 362 62 361 z "},".":{"ha":275,"x_min":26,"x_max":212,"o":"m 212 90 q 172 16 203 47 q 102 -15 140 -15 q 40 17 62 -15 q 26 90 18 49 q 67 159 34 130 q 138 189 100 189 q 198 159 176 189 q 212 90 220 130 z "},"/":{"ha":659,"x_min":-15,"x_max":673,"o":"m 673 1024 l 98 -16 q 64 -36 94 -24 q 5 -47 35 -47 q -8 -45 -3 -47 q -14 -41 -14 -43 l -15 -38 l 560 1002 q 628 1032 576 1032 q 673 1024 661 1032 z "},":":{"ha":307,"x_min":14,"x_max":285,"o":"m 95 490 q 132 573 95 537 q 212 609 168 609 q 264 587 244 609 q 285 532 285 566 q 250 445 285 486 q 172 404 214 404 q 117 429 138 404 q 95 490 95 454 m 14 71 q 50 154 14 118 q 130 190 87 190 q 182 168 163 190 q 202 113 202 146 q 168 26 202 66 q 91 -15 133 -15 q 35 10 57 -15 q 14 71 14 35 z "},";":{"ha":355,"x_min":-12,"x_max":332,"o":"m 142 490 q 179 573 142 537 q 259 609 216 609 q 312 587 292 609 q 332 532 332 566 q 297 445 332 486 q 220 404 262 404 q 164 429 186 404 q 142 490 142 454 m 98 -24 q 87 22 102 -4 q 80 84 73 49 q 117 146 85 111 q 199 182 148 182 q 248 171 236 182 q 247 71 255 113 q 210 -27 243 49 q 132 -134 175 -91 q 9 -228 88 -178 l 7 -228 q -7 -210 0 -228 q -12 -182 -15 -191 q 11 -162 -12 -180 q 61 -107 34 -144 q 98 -24 88 -71 z "},"<":{"ha":579,"x_min":12,"x_max":574,"o":"m 126 283 l 487 69 q 488 61 487 69 q 473 16 487 52 q 453 -20 458 -20 l 448 -18 l 24 240 q 12 294 5 254 q 41 327 16 315 l 562 581 q 568 583 567 583 q 574 524 574 583 q 568 494 574 524 l 126 283 z "},"=":{"ha":720,"x_min":31,"x_max":674,"o":"m 37 148 q 31 161 37 148 q 57 239 43 208 q 61 244 58 243 q 65 245 64 245 l 68 245 l 627 245 q 636 241 636 245 q 636 239 636 240 q 608 156 628 199 q 597 148 608 155 l 37 148 m 75 340 l 68 354 q 103 438 91 438 l 670 438 q 674 431 675 438 q 644 349 667 397 l 636 340 l 75 340 z "},">":{"ha":598,"x_min":-3,"x_max":567,"o":"m 449 283 l 88 494 q 87 506 88 494 q 123 583 117 583 q 129 581 123 583 l 551 327 q 567 294 571 315 q 533 240 560 254 l 11 -18 q 4 -20 5 -20 q -2 17 -1 -20 q -1 61 -3 54 l 4 69 l 449 283 z "},"?":{"ha":469,"x_min":8,"x_max":472,"o":"m 8 69 q 43 153 8 117 q 121 189 79 189 q 176 167 155 189 q 198 110 198 145 q 163 24 198 62 q 87 -15 129 -15 q 32 9 56 -15 q 8 69 8 33 m 243 292 q 225 264 243 275 q 130 311 193 264 q 68 407 68 357 q 96 497 68 463 q 160 548 125 532 l 297 609 q 368 699 368 640 q 301 769 368 769 q 250 739 281 769 q 199 708 220 708 q 139 747 155 708 q 141 826 123 787 q 254 876 182 876 q 407 821 342 876 q 472 678 472 765 q 442 569 472 623 q 369 492 412 515 q 229 423 308 458 q 176 368 176 401 q 210 320 176 345 q 243 292 243 296 z "},"@":{"ha":1016,"x_min":31,"x_max":962,"o":"m 395 -232 q 218 -187 297 -232 q 94 -73 138 -142 q 33 83 50 -3 q 31 251 15 168 q 253 639 79 495 q 646 783 427 783 q 848 710 766 783 q 956 532 929 637 q 962 316 983 426 q 842 60 926 138 q 667 -18 758 -18 q 566 16 604 -18 q 537 94 529 50 q 534 94 537 95 q 530 91 532 92 q 452 23 507 56 q 338 -9 397 -9 q 242 53 271 -9 q 228 191 213 115 q 376 446 256 335 q 658 556 496 556 q 711 553 680 556 q 762 548 742 551 l 783 544 q 760 472 768 502 l 680 194 q 694 46 637 46 q 774 73 739 46 q 829 142 808 99 q 860 220 849 186 q 878 290 871 254 q 842 585 911 467 q 617 704 773 704 q 307 592 444 704 q 137 302 171 480 q 174 -42 95 87 q 476 -171 252 -171 q 567 -153 519 -171 l 567 -165 q 517 -212 563 -191 q 395 -232 471 -232 m 559 247 l 616 437 q 621 470 624 453 q 586 487 617 487 q 463 406 532 487 q 368 194 393 326 q 359 97 354 122 q 389 72 365 72 q 490 143 430 72 q 559 247 549 214 z "},"A":{"ha":860,"x_min":-47,"x_max":849,"o":"m 411 289 q 296 288 340 289 q 283 285 292 288 q 273 281 274 282 l 212 178 q 167 88 167 111 q 201 53 167 65 q 255 41 236 41 q 258 35 258 41 q 251 -5 258 8 q 191 0 235 -4 q 115 4 148 4 q 28 0 81 4 q -45 -5 -26 -4 q -46 5 -46 -3 q -39 41 -46 41 q 19 60 -26 41 q 76 96 64 80 q 129 182 88 114 l 498 795 q 511 818 499 798 q 530 848 524 838 q 549 874 537 859 q 570 897 560 890 q 587 905 579 905 q 604 894 600 905 l 746 191 q 765 90 751 156 q 800 54 769 68 q 846 41 831 41 q 849 34 849 41 q 840 -5 849 7 q 771 -1 836 -5 q 674 4 707 4 q 487 -5 648 4 q 486 4 486 -4 q 496 41 486 41 q 532 52 507 41 q 566 75 556 64 q 572 94 572 84 q 543 281 572 106 q 534 286 543 286 q 411 289 486 289 m 427 370 q 518 373 479 370 q 524 380 524 373 l 480 621 l 334 380 q 333 376 332 378 q 335 374 334 374 q 427 370 372 370 z "},"B":{"ha":761,"x_min":-20,"x_max":769,"o":"m 530 304 q 406 427 530 427 q 324 408 327 427 l 264 103 q 264 98 264 103 q 271 85 264 90 q 299 77 278 80 q 362 75 320 75 q 425 87 396 75 q 497 158 464 103 q 530 304 530 213 m 722 307 q 616 85 722 171 q 354 0 510 0 q 250 1 353 0 q 145 3 148 3 q 49 -1 99 3 q -16 -5 -1 -5 q -19 7 -19 -3 q -17 23 -19 15 q -12 36 -15 31 q -8 41 -9 41 q 35 52 5 41 q 72 75 65 62 q 106 194 88 103 l 205 707 q 218 812 220 793 q 189 838 217 823 q 149 852 161 852 q 146 861 146 852 q 156 898 146 888 q 334 894 250 894 q 467 895 414 894 q 529 897 521 897 q 612 886 571 897 q 688 852 652 875 q 747 791 724 830 q 769 703 769 753 q 764 653 769 677 q 749 610 758 629 q 730 572 741 590 q 706 541 719 555 q 681 516 693 528 q 657 496 669 505 q 637 483 646 488 q 623 475 628 477 q 618 472 618 472 q 688 420 654 465 q 722 307 722 376 m 579 718 q 555 798 579 774 q 480 822 530 822 q 422 818 441 822 q 400 800 404 814 l 346 522 q 408 503 342 503 q 533 556 487 503 q 579 718 579 609 z "}}}
